<svg width="806" height="300" viewBox="0 0 806 300" fill="none" xmlns="http://www.w3.org/2000/svg">
<path d="M101.267 50.9174C114.885 50.9174 127.045 54.3216 137.746 61.13C148.544 67.8412 157.007 77.373 163.135 89.7255C169.069 101.592 172.036 115.549 172.036 131.597C172.036 147.16 169.069 161.068 163.135 173.323C157.201 185.579 148.836 195.159 138.038 202.065C127.142 209.068 114.885 212.569 101.267 212.569C91.3441 212.569 82.0054 210.527 73.2504 206.442C64.4954 202.357 57.005 196.618 50.7792 189.226V208.922H0V0H50.7792V74.1147C57.005 66.7227 64.4954 61.0328 73.2504 57.045C82.0054 52.9599 91.3441 50.9174 101.267 50.9174ZM86.0911 170.405C93.2897 170.405 99.7101 168.752 105.352 165.445C110.994 162.138 115.42 157.518 118.631 151.585C121.841 145.749 123.446 139.087 123.446 131.597C123.446 124.303 121.841 117.689 118.631 111.756C115.42 105.823 110.994 101.203 105.352 97.8956C99.7101 94.5887 93.2897 92.9352 86.0911 92.9352C79.2817 92.9352 73.2018 94.5887 67.8515 97.8956C62.5012 101.105 58.3182 105.628 55.3026 111.464C52.287 117.397 50.7792 124.108 50.7792 131.597C50.7792 139.087 52.287 145.798 55.3026 151.731C58.3182 157.567 62.5012 162.138 67.8515 165.445C73.2018 168.752 79.2817 170.405 86.0911 170.405Z" fill="black"/>
<path d="M178.988 208.922V0H229.767V208.922H178.988Z" fill="black"/>
<path d="M244.16 208.922V54.4189H294.648V208.922H244.16Z" fill="black"/>
<path d="M404.325 50.9174C415.123 50.9174 424.85 53.4462 433.508 58.5039C442.166 63.4644 448.975 70.4673 453.937 79.5128C458.703 88.6556 461.087 99.0142 461.087 110.589V208.922H412.642V121.968C412.642 116.327 411.523 111.318 409.286 106.941C407.146 102.467 404.082 99.0142 400.093 96.5826C396.202 94.151 391.63 92.9352 386.377 92.9352C381.416 92.9352 376.844 94.151 372.661 96.5826C368.478 98.9169 365.219 102.127 362.884 106.212C360.452 110.102 359.236 114.674 359.236 119.926L358.945 208.922H308.457V54.4189H358.945V72.0722C363.711 65.4583 370.083 60.3033 378.06 56.6073C386.037 52.814 394.792 50.9174 404.325 50.9174Z" fill="black"/>
<path d="M572.661 121.968L630.006 208.922H572.661L539.1 154.211L523.632 172.156V208.922H472.853V0H523.632V115.403L572.369 54.4189H629.714L572.661 121.968Z" fill="black"/>
<path d="M244.133 0.016486H294.786V39.6234H244.133V0.016486Z" fill="black"/>
<path d="M638.065 208.458V53.9552H688.552V208.458H638.065Z" fill="#0C831F"/>
<path d="M795.305 164.835L805.373 197.37C800.801 201.747 795.013 205.297 788.009 208.02C781.103 210.744 774.342 212.105 767.727 212.105C758.194 212.105 749.682 210.014 742.191 205.832C734.701 201.552 728.864 195.619 724.681 188.033C720.498 180.641 718.407 172.13 718.407 162.501V94.3681H698.124V53.9552H718.407V0.0166016H766.851V53.9552H798.807V94.3681H766.851V153.164C766.851 158.124 768.165 162.161 770.791 165.273C773.418 168.386 776.774 169.942 780.859 169.942C783.778 169.942 786.502 169.504 789.031 168.629C791.56 167.753 793.651 166.489 795.305 164.835Z" fill="#0C831F"/>
<path d="M637.664 0.0166016H688.317V39.6235H637.664V0.0166016Z" fill="#0C831F"/>
<path d="M328.065 248.362V253.028H336.819V256.794H328.065V287.111H323.978V256.794H318.442V253.028H323.978V248.362C323.978 246.709 324.311 245.229 324.976 243.92C325.662 242.59 326.617 241.539 327.84 240.766C329.042 240.015 330.393 239.64 331.895 239.64C334.191 239.64 336.294 240.369 338.203 241.828L336.111 244.853C335.124 243.888 333.805 243.405 332.153 243.405C331.38 243.405 330.683 243.62 330.061 244.049C329.439 244.478 328.945 245.068 328.58 245.819C328.237 246.57 328.065 247.417 328.065 248.362Z" fill="#232323"/>
<path d="M359.799 287.916C356.709 287.916 353.791 287.1 351.045 285.47C348.32 283.839 346.164 281.64 344.576 278.872C342.945 276.211 342.13 273.272 342.13 270.054C342.13 266.9 342.924 263.96 344.511 261.235C346.099 258.489 348.277 256.3 351.045 254.67C353.705 253.06 356.623 252.256 359.799 252.256C362.889 252.256 365.785 253.06 368.489 254.67C371.213 256.257 373.391 258.435 375.022 261.203C376.61 263.949 377.404 266.9 377.404 270.054C377.404 273.186 376.61 276.136 375.022 278.904C373.434 281.651 371.289 283.839 368.585 285.47C365.925 287.1 362.996 287.916 359.799 287.916ZM359.799 284.15C362.159 284.15 364.369 283.517 366.429 282.251C368.489 280.964 370.13 279.226 371.353 277.038C372.533 274.828 373.123 272.5 373.123 270.054C373.123 267.565 372.522 265.247 371.321 263.102C370.141 260.935 368.521 259.208 366.461 257.92C364.358 256.633 362.138 255.989 359.799 255.989C357.417 255.989 355.197 256.622 353.137 257.888C351.077 259.154 349.457 260.87 348.277 263.037C347.033 265.183 346.41 267.522 346.41 270.054C346.41 272.542 347.011 274.87 348.213 277.038C349.414 279.205 351.056 280.932 353.137 282.219C355.239 283.507 357.46 284.15 359.799 284.15Z" fill="#232323"/>
<path d="M390.116 253.028V260.012C390.738 258.467 391.693 257.116 392.981 255.957C394.289 254.777 395.834 253.865 397.615 253.221C399.396 252.578 401.295 252.256 403.312 252.256V255.989C400.801 255.989 398.548 256.504 396.553 257.534C394.558 258.564 392.981 259.991 391.822 261.814C390.685 263.66 390.116 265.741 390.116 268.058V287.111H386.029V253.028H390.116Z" fill="#232323"/>
<path d="M446.406 252.256C448.68 252.256 450.73 252.803 452.553 253.897C454.377 254.991 455.804 256.526 456.834 258.499C457.842 260.624 458.346 262.866 458.346 265.226V287.111H454.259V265.741C454.259 263.874 453.905 262.201 453.197 260.72C452.489 259.218 451.491 258.049 450.204 257.212C448.895 256.397 447.436 255.989 445.827 255.989C443.982 255.989 442.329 256.375 440.87 257.148C439.433 257.92 438.306 259.014 437.491 260.431C436.676 261.825 436.268 263.424 436.268 265.226V287.111H432.181V265.741C432.181 263.874 431.827 262.201 431.119 260.72C430.411 259.218 429.424 258.049 428.158 257.212C426.892 256.397 425.444 255.989 423.813 255.989C421.968 255.989 420.316 256.375 418.857 257.148C417.419 257.92 416.293 259.014 415.477 260.431C414.662 261.825 414.254 263.424 414.254 265.226V287.111H410.167V253.028H414.254V258.049C415.07 256.225 416.368 254.809 418.149 253.801C419.929 252.771 421.989 252.256 424.328 252.256C426.838 252.256 429.048 252.91 430.958 254.219C432.867 255.506 434.283 257.309 435.206 259.626C435.657 258.167 436.418 256.88 437.491 255.764C438.585 254.648 439.916 253.779 441.482 253.157C443.005 252.556 444.647 252.256 446.406 252.256Z" fill="#232323"/>
<path d="M483.579 284.15C485.767 284.15 487.913 283.764 490.016 282.992C492.118 282.198 493.749 281.157 494.908 279.87L497.482 282.638C496.581 283.646 495.358 284.558 493.813 285.373C492.29 286.167 490.616 286.789 488.793 287.24C486.99 287.69 485.252 287.916 483.579 287.916C480.575 287.916 477.753 287.133 475.114 285.566C472.497 283.979 470.415 281.811 468.871 279.065C467.283 276.319 466.489 273.293 466.489 269.989C466.489 266.771 467.24 263.799 468.742 261.074C470.244 258.349 472.304 256.172 474.921 254.541C477.539 253.017 480.339 252.256 483.321 252.256C486.583 252.256 489.425 253.05 491.85 254.637C494.296 256.204 496.195 258.457 497.547 261.396C498.812 264.421 499.445 267.854 499.445 271.695H470.641C470.877 274.034 471.585 276.158 472.765 278.067C473.966 279.977 475.501 281.457 477.367 282.509C479.234 283.603 481.304 284.15 483.579 284.15ZM483.45 255.989C481.261 255.989 479.245 256.493 477.399 257.502C475.576 258.51 474.074 259.916 472.894 261.718C471.735 263.52 471.005 265.591 470.705 267.929H495.358C495.186 265.548 494.596 263.456 493.588 261.654C492.58 259.851 491.206 258.457 489.468 257.47C487.752 256.483 485.746 255.989 483.45 255.989Z" fill="#232323"/>
<path d="M512.158 253.028V260.012C512.78 258.467 513.735 257.116 515.023 255.957C516.331 254.777 517.876 253.865 519.657 253.221C521.438 252.578 523.337 252.256 525.354 252.256V255.989C522.843 255.989 520.59 256.504 518.595 257.534C516.6 258.564 515.023 259.991 513.864 261.814C512.727 263.66 512.158 265.741 512.158 268.058V287.111H508.071V253.028H512.158Z" fill="#232323"/>
<path d="M532.209 287.111V241.024H536.296V287.111H532.209Z" fill="#232323"/>
<path d="M550.779 298.987C548.934 298.987 547.131 298.612 545.372 297.861L546.434 294.224C547.679 294.889 549.084 295.221 550.65 295.221C551.938 295.221 553.021 294.964 553.901 294.449C554.802 293.934 555.564 293.14 556.186 292.067L558.214 287.626L543.248 253.028H547.754L560.338 282.766L572.278 253.028H576.687L560.981 291.327C559.951 293.923 558.6 295.833 556.926 297.056C555.274 298.3 553.225 298.944 550.779 298.987Z" fill="#232323"/>
<path d="M643.484 267.587V284.814H634.49L634.418 247.929H643.478V251.749C643.897 251.043 646.548 247.563 654.076 247.99V256.862C654.076 256.862 643.897 256.082 643.478 266.661C643.484 266.661 643.484 267.301 643.484 267.587Z" fill="black"/>
<path d="M763.384 267.587V284.814H754.39L754.318 247.929H763.384V251.749C763.803 251.043 766.454 247.563 773.982 247.99V256.862C773.982 256.862 763.803 256.082 763.384 266.661C763.384 266.661 763.384 267.301 763.384 267.587Z" fill="black"/>
<path d="M686.328 280C682.696 283.699 678.196 285.545 672.965 285.545C667.663 285.545 663.235 283.699 659.603 280C655.97 276.301 654.157 271.792 654.157 266.393C654.157 260.994 655.97 256.484 659.603 252.785C663.235 249.087 667.663 247.24 672.965 247.24C678.267 247.24 682.696 249.087 686.328 252.785C689.96 256.484 691.845 260.994 691.845 266.393C691.851 271.792 689.96 276.301 686.328 280ZM666.066 273.565C667.879 275.411 670.207 276.374 672.965 276.374C675.724 276.374 678.052 275.411 679.865 273.565C681.678 271.719 682.624 269.275 682.624 266.393C682.624 263.51 681.678 261.067 679.865 259.22C678.046 257.374 675.724 256.411 672.965 256.411C670.207 256.411 667.957 257.374 666.066 259.22C664.246 261.067 663.307 263.51 663.307 266.393C663.307 269.275 664.246 271.712 666.066 273.565Z" fill="black"/>
<path d="M723.452 270.263C724.684 274.839 728.018 277.051 733.451 277.051C736.928 277.051 739.609 275.869 741.422 273.438L748.812 277.795C745.336 282.962 740.117 285.546 733.302 285.546C727.431 285.546 722.722 283.7 719.167 280.086C715.618 276.472 713.805 271.896 713.805 266.357C713.805 260.897 715.547 256.321 719.095 252.707C722.572 249.093 727.138 247.247 732.649 247.247C737.867 247.247 742.14 249.093 745.551 252.78C748.956 256.473 750.626 260.97 750.626 266.43C750.626 267.612 750.482 268.941 750.261 270.269H723.452V270.263ZM723.308 262.957H741.422C740.913 260.519 739.83 258.679 738.161 257.424C736.491 256.241 734.684 255.577 732.583 255.577C730.118 255.577 728.089 256.241 726.498 257.497C724.9 258.898 723.811 260.671 723.308 262.957Z" fill="black"/>
<path d="M786.909 258.448C786.909 259.405 787.561 260.221 788.794 260.812C790.026 261.403 791.546 261.921 793.359 262.439C795.173 262.884 796.986 263.475 798.799 264.213C800.612 264.95 802.132 266.059 803.365 267.759C804.598 269.386 805.25 271.452 805.25 273.963C805.25 277.655 803.874 280.532 801.115 282.524C798.362 284.517 794.951 285.553 790.894 285.553C783.569 285.553 778.567 282.67 775.958 276.912L783.934 272.335C784.952 275.51 787.339 277.058 790.894 277.058C794.155 277.058 795.825 276.022 795.825 273.956C795.825 272.994 795.173 272.183 793.94 271.592C792.707 271.001 791.187 270.41 789.374 269.965C787.561 269.447 785.748 268.856 783.934 268.119C782.121 267.381 780.601 266.272 779.368 264.651C778.136 263.104 777.483 261.105 777.483 258.747C777.483 255.2 778.788 252.324 781.397 250.331C784.006 248.265 787.196 247.229 791.038 247.229C793.94 247.229 796.549 247.894 798.943 249.222C801.336 250.551 803.221 252.47 804.598 254.908L796.77 259.265C795.609 256.827 793.724 255.572 791.044 255.572C789.883 255.572 788.871 255.864 788.069 256.382C787.345 256.821 786.909 257.558 786.909 258.448Z" fill="black"/>
<path d="M630.113 247.916H621.197L621.203 250.75C618.073 248.434 614.518 247.276 610.395 247.276H610.324C610.18 247.276 610.036 247.276 609.827 247.276C606.057 247.276 602.718 248.288 599.869 250.39C594.962 253.644 591.761 259.293 591.761 265.74C591.761 267.916 592.114 270.012 592.826 271.895C593.682 274.649 595.172 277.184 597.308 279.354C600.863 282.973 605.201 284.783 610.395 284.783C614.518 284.783 618.145 283.625 621.203 281.31V282.76C621.203 285.587 620.347 287.83 618.713 289.353C617.08 290.877 614.8 291.669 611.885 291.669C607.475 291.669 604.345 290.005 602.568 286.599L594.747 291.163C596.309 294.058 598.589 296.233 601.503 297.756C604.417 299.28 607.762 299.999 611.604 299.999C616.727 299.999 621.065 298.549 624.691 295.581C628.318 292.613 630.095 288.342 630.095 282.76L630.113 247.916ZM603.567 272.986C601.862 271.176 601.006 268.86 601.006 266.033C601.006 263.205 601.928 260.817 603.711 259.007C605.488 257.197 607.762 256.252 610.467 256.252C613.172 256.252 615.446 257.191 617.223 259.007C619.001 260.817 619.928 263.205 619.928 266.033C619.928 268.854 619.007 271.249 617.223 273.059C615.446 274.869 613.172 275.813 610.467 275.813C610.042 275.813 609.683 275.813 609.258 275.74C606.978 275.447 605.058 274.43 603.567 272.986Z" fill="black"/>
<path d="M696.993 257.197L697.13 284.814H706.124L705.987 257.197H713.437V247.935H706.124C706.483 244.193 708.919 242.426 713.443 242.779V234.053C708.003 233.7 703.892 234.833 701.176 237.46C698.614 239.854 697.292 243.37 697.07 247.935H691.96V257.191L696.993 257.197Z" fill="black"/>
</svg>
