<svg width="22" height="15" viewBox="0 0 22 15" fill="none" xmlns="http://www.w3.org/2000/svg"><path fill-rule="evenodd" clip-rule="evenodd" d="M3.54441 1.55359C2.84295 1.55359 2.27275 2.11384 2.27275 2.80173V11.8124C2.27275 12.5003 2.84295 13.0595 3.54441 13.0595H18.4556C18.7997 13.0595 19.1218 12.9275 19.3622 12.6874C19.5982 12.4516 19.7272 12.1412 19.7272 11.8124V2.80171C19.7272 2.11381 19.1571 1.55356 18.4556 1.55356L3.54441 1.55359ZM18.4556 14.3066H3.54441C2.14149 14.3066 1 13.1872 1 11.8125V2.80185C1 1.42498 2.14152 0.306641 3.54441 0.306641H18.4556C19.8585 0.306641 21 1.42501 21 2.80185V11.8125C21 12.4712 20.7397 13.092 20.2699 13.5614C19.7879 14.0417 19.1438 14.3066 18.4556 14.3066Z" fill="#a3a5a9"/><path d="M3.54441 1.55359V1.80359H3.54441L3.54441 1.55359ZM19.3622 12.6874L19.5388 12.8643L19.5389 12.8643L19.3622 12.6874ZM18.4556 1.55356V1.30356V1.55356ZM20.2699 13.5614L20.4463 13.7385L20.4466 13.7383L20.2699 13.5614ZM3.54441 1.30359C2.70922 1.30359 2.02275 1.97147 2.02275 2.80173H2.52275C2.52275 2.25621 2.97668 1.80359 3.54441 1.80359V1.30359ZM2.02275 2.80173V11.8124H2.52275V2.80173H2.02275ZM2.02275 11.8124C2.02275 12.6429 2.7095 13.3095 3.54441 13.3095V12.8095C2.9764 12.8095 2.52275 12.3576 2.52275 11.8124H2.02275ZM3.54441 13.3095H18.4556V12.8095H3.54441V13.3095ZM18.4556 13.3095C18.8648 13.3095 19.2508 13.152 19.5388 12.8643L19.1855 12.5105C18.9928 12.703 18.7346 12.8095 18.4556 12.8095V13.3095ZM19.5389 12.8643C19.8213 12.5821 19.9772 12.2082 19.9772 11.8124H19.4772C19.4772 12.0741 19.3751 12.3211 19.1855 12.5105L19.5389 12.8643ZM19.9772 11.8124V2.80171H19.4772V11.8124H19.9772ZM19.9772 2.80171C19.9772 1.97144 19.2908 1.30356 18.4556 1.30356V1.80356C19.0233 1.80356 19.4772 2.25619 19.4772 2.80171H19.9772ZM18.4556 1.30356L3.54441 1.30359L3.54441 1.80359L18.4556 1.80356L18.4556 1.30356ZM18.4556 14.0566H3.54441V14.5566H18.4556V14.0566ZM3.54441 14.0566C2.27487 14.0566 1.25 13.0445 1.25 11.8125H0.75C0.75 13.3299 2.00811 14.5566 3.54441 14.5566V14.0566ZM1.25 11.8125V2.80185H0.75V11.8125H1.25ZM1.25 2.80185C1.25 1.5677 2.27489 0.556641 3.54441 0.556641V0.0566406C2.00815 0.0566406 0.75 1.28226 0.75 2.80185H1.25ZM3.54441 0.556641H18.4556V0.0566406H3.54441V0.556641ZM18.4556 0.556641C19.7251 0.556641 20.75 1.56773 20.75 2.80185H21.25C21.25 1.28229 19.9919 0.0566406 18.4556 0.0566406V0.556641ZM20.75 2.80185V11.8125H21.25V2.80185H20.75ZM20.75 11.8125C20.75 12.4038 20.5168 12.9613 20.0932 13.3846L20.4466 13.7383C20.9626 13.2227 21.25 12.5386 21.25 11.8125H20.75ZM20.0934 13.3843C19.6588 13.8174 19.0784 14.0566 18.4556 14.0566V14.5566C19.2093 14.5566 19.917 14.2659 20.4463 13.7385L20.0934 13.3843Z" fill="#a3a5a9"/><path fill-rule="evenodd" clip-rule="evenodd" d="M7.01592 8.30664C6.45478 8.30664 6 7.85822 6 7.30714V7.30614C6 6.75407 6.45478 6.30664 7.01592 6.30664C7.57706 6.30664 8.03184 6.75407 8.03184 7.30614V7.30714C8.03184 7.85822 7.57706 8.30664 7.01592 8.30664ZM10.9995 8.30664C10.4394 8.30664 9.98356 7.85822 9.98356 7.30714V7.30614C9.98356 6.75407 10.4394 6.30664 10.9995 6.30664C11.5606 6.30664 12.0154 6.75407 12.0154 7.30614V7.30714C12.0154 7.85822 11.5606 8.30664 10.9995 8.30664ZM14.9841 8.30664C14.4229 8.30664 13.9682 7.85822 13.9682 7.30714V7.30614C13.9682 6.75407 14.4229 6.30664 14.9841 6.30664C15.5452 6.30664 16 6.75407 16 7.30614V7.30714C16 7.85822 15.5452 8.30664 14.9841 8.30664Z" fill="#a3a5a9"/></svg>