 <svg width="20" height="20" viewBox="0 0 20 20" fill="none" xmlns="http://www.w3.org/2000/svg"><path opacity="0.3" fill-rule="evenodd" clip-rule="evenodd" d="M10 2C5.59 2 2 5.59 2 10C2 14.41 5.59 18 10 18C14.41 18 18 14.41 18 10C18 5.59 14.41 2 10 2ZM7 8.5V11H11V13H7V15.5L3.5 12L7 8.5ZM13 9V11.5L16.5 8L13 4.5V7H9V9H13Z" fill="#a3a5a9"/><path fill-rule="evenodd" clip-rule="evenodd" d="M0 10C0 4.48 4.48 0 10 0C15.52 0 20 4.48 20 10C20 15.52 15.52 20 10 20C4.48 20 0 15.52 0 10ZM2 10C2 14.41 5.59 18 10 18C14.41 18 18 14.41 18 10C18 5.59 14.41 2 10 2C5.59 2 2 5.59 2 10Z" fill="#a3a5a9"/><path d="M13 4.5V7H9V9H13V11.5L16.5 8L13 4.5Z" fill="#a3a5a9"/><path d="M7 8.5L3.5 12L7 15.5V13H11V11H7V8.5Z" fill="#a3a5a9"/></svg>